# xmcd
#
# Track frame offsets:
#	150
#	11193
#	20936
#	34263
#	41488
#	57690
#	71245
#	84785
#	101225
#	111173
#	120852
#	134690
#	158564
#	177708
#	194129
#	222425
#	273949
#	288249
#	300053
#	309630
#
# Disc length: 4250 seconds
#
# Revision: 1
# Processed by: cddbd v1.5.2PL0 Copyright (c) Steve Scherf et al.
# Submitted via: EasyCDDAExtractor 11.5.3.1
#
DISCID=2d109814
DTITLE=Various Artist - Blues Giants, The Essential Songbook [CD3)
DYEAR=2006
DGENRE=Blues
TTITLE0=Big Bill Broonzy - Jaqueline
TTITLE1=Leadbelly - How Long
TTITLE2=Lightning Slim - That's All Right
TTITLE3=Big Joe Williams - Terraplane Blues
TTITLE4=Mississippi John Hurt - Lonesone Blues
TTITLE5=Big Bill Broonzy and Washboard Sam - All By Myself
TTITLE6=Leadbelly - The Burgeon Blues
TTITLE7=B.B. King - My Guitar Sings The Blues
TTITLE8=Otis Rush - I can't Stop, Baby
TTITLE9=Buddy Guy - Money
TTITLE10=Bo Diddley - You Can't Judge A Book By The Cover
TTITLE11=Jimmy Johnson - When My First Wife Quit Me
TTITLE12=Byther Smith - Tell Me How You Like It
TTITLE13=Otis Rush - So Many Roads, So Many Trains
TTITLE14=Buddy Guy - First Time I Met The Blues
TTITLE15=Jimi Hendrix Experience - Red House
TTITLE16=John Mayall - So Much To Say
TTITLE17=Jeff Beck and All Stars - Steelin'
TTITLE18=Eric Clapton and Jimmy Page - Tribute To Elmore
TTITLE19=Canned Heat - Rollin' and Tumblin'
EXTD=YEAR: 2006
EXTT0=
EXTT1=
EXTT2=
EXTT3=
EXTT4=
EXTT5=
EXTT6=
EXTT7=
EXTT8=
EXTT9=
EXTT10=
EXTT11=
EXTT12=
EXTT13=
EXTT14=
EXTT15=
EXTT16=
EXTT17=
EXTT18=
EXTT19=
PLAYORDER=
